<svg xmlns="http://www.w3.org/2000/svg" viewBox="0 0 640 640"><defs><linearGradient id="g" x1="0" x2="1"><stop stop-color="#6b2cff"/><stop offset="1" stop-color="#d7a84d"/></linearGradient><filter id="s"><feDropShadow dx="0" dy="22" stdDeviation="22" flood-opacity=".45"/></filter></defs><rect width="640" height="640" rx="90" fill="#111019"/><circle cx="320" cy="280" r="210" fill="url(#g)" opacity=".18"/><g filter="url(#s)"><path d="M150 330c30-126 310-126 340 0z" fill="#6b2cff"/><path d="M165 342h310c26 0 38 32 19 50-48 45-298 45-347 0-20-18-7-50 18-50z" fill="#d7a84d"/><path d="M180 402h280v52H180z" fill="#c9ccd6"/><path d="M176 464c42 52 249 55 290 0z" fill="#6b2cff"/></g><circle cx="248" cy="302" r="20" fill="#fff"/><circle cx="392" cy="302" r="20" fill="#fff"/><circle cx="255" cy="308" r="8" fill="#111"/><circle cx="385" cy="308" r="8" fill="#111"/><path d="M270 370c30 26 70 26 100 0" fill="none" stroke="#111" stroke-width="16" stroke-linecap="round"/><path d="M240 180l80-80 80 80" fill="none" stroke="#d7a84d" stroke-width="24" stroke-linecap="round" stroke-linejoin="round"/><text x="320" y="560" text-anchor="middle" font-family="Arial" font-weight="900" font-size="58" fill="#fff">ABI PRIME</text></svg>